<svg width="400" height="300" viewBox="0 0 400 300" fill="none" xmlns="http://www.w3.org/2000/svg">
  <!-- Background -->
  <rect width="400" height="300" fill="#fdf5e6"/>
  
  <!-- Japanese Maple Leaves -->
  <!-- Central leaf -->
  <path d="M200 150 L180 120 Q185 110 195 115 L200 100 L205 115 Q215 110 220 120 L200 150" fill="#DC143C"/>
  <path d="M200 150 L220 120 Q225 130 215 135 L230 150 L215 155 Q225 165 220 170 L200 150" fill="#FF6347"/>
  <path d="M200 150 L220 170 Q215 180 205 175 L200 190 L195 175 Q185 180 180 170 L200 150" fill="#FF4500"/>
  <path d="M200 150 L180 170 Q175 160 185 155 L170 150 L185 145 Q175 135 180 130 L200 150" fill="#B22222"/>
  <path d="M200 150 L190 125 Q200 120 210 125 L210 140 Q205 145 200 150" fill="#8B0000"/>
  
  <!-- Additional scattered leaves -->
  <path d="M120 80 L105 60 Q108 55 115 58 L120 50 L125 58 Q132 55 135 60 L120 80" fill="#DC143C" opacity="0.8"/>
  <path d="M320 100 L305 80 Q308 75 315 78 L320 70 L325 78 Q332 75 335 80 L320 100" fill="#FF6347" opacity="0.8"/>
  <path d="M80 200 L65 180 Q68 175 75 178 L80 170 L85 178 Q92 175 95 180 L80 200" fill="#FF4500" opacity="0.8"/>
  <path d="M350 220 L335 200 Q338 195 345 198 L350 190 L355 198 Q362 195 365 200 L350 220" fill="#B22222" opacity="0.8"/>
  
  <!-- Stems and veins -->
  <line x1="200" y1="150" x2="200" y2="190" stroke="#8B4513" stroke-width="2"/>
  <line x1="200" y1="150" x2="190" y2="130" stroke="#654321" stroke-width="1" opacity="0.7"/>
  <line x1="200" y1="150" x2="210" y2="130" stroke="#654321" stroke-width="1" opacity="0.7"/>
  <line x1="200" y1="150" x2="180" y2="160" stroke="#654321" stroke-width="1" opacity="0.7"/>
  <line x1="200" y1="150" x2="220" y2="160" stroke="#654321" stroke-width="1" opacity="0.7"/>
  
  <!-- Autumn atmosphere particles -->
  <circle cx="100" cy="50" r="2" fill="#FFD700" opacity="0.6"/>
  <circle cx="300" cy="70" r="2" fill="#FF8C00" opacity="0.6"/>
  <circle cx="150" cy="40" r="1.5" fill="#DC143C" opacity="0.5"/>
  <circle cx="250" cy="60" r="1.5" fill="#FF6347" opacity="0.5"/>
  
  <!-- Title -->
  <text x="200" y="280" text-anchor="middle" fill="#8B4513" font-family="serif" font-size="18" font-weight="bold">Japanese Maple Leaves</text>
</svg>
