<svg width="400" height="300" viewBox="0 0 400 300" fill="none" xmlns="http://www.w3.org/2000/svg">
  <!-- Background -->
  <rect width="400" height="300" fill="#f0f8f0"/>
  
  <!-- Pot -->
  <path d="M150 220 L250 220 L240 270 L160 270 Z" fill="#8B4513"/>
  <ellipse cx="200" cy="220" rx="50" ry="8" fill="#654321"/>
  <ellipse cx="200" cy="268" rx="40" ry="6" fill="#5D4037"/>
  
  <!-- Soil -->
  <ellipse cx="200" cy="218" rx="45" ry="6" fill="#4a4a4a"/>
  
  <!-- Main trunk -->
  <rect x="195" y="120" width="10" height="100" fill="#8B4513" rx="2"/>
  
  <!-- Branches -->
  <path d="M200 140 Q210 135 220 140 Q225 145 220 150 Q210 155 200 150" fill="#8B4513"/>
  <path d="M200 160 Q185 155 175 160 Q170 165 175 170 Q185 175 200 170" fill="#8B4513"/>
  <path d="M200 180 Q215 175 225 180 Q230 185 225 190 Q215 195 200 190" fill="#8B4513"/>
  
  <!-- Oak leaves -->
  <!-- Right branch leaves -->
  <path d="M220 145 Q235 140 240 150 Q235 160 220 155 Q215 150 220 145" fill="#228B22"/>
  <path d="M225 140 Q240 135 245 145 Q240 155 225 150 Q220 145 225 140" fill="#32CD32"/>
  <path d="M230 150 Q245 145 250 155 Q245 165 230 160 Q225 155 230 150" fill="#90EE90"/>
  
  <!-- Left branch leaves -->
  <path d="M175 165 Q160 160 155 170 Q160 180 175 175 Q180 170 175 165" fill="#228B22"/>
  <path d="M170 160 Q155 155 150 165 Q155 175 170 170 Q175 165 170 160" fill="#32CD32"/>
  <path d="M165 170 Q150 165 145 175 Q150 185 165 180 Q170 175 165 170" fill="#90EE90"/>
  
  <!-- Top branch leaves -->
  <path d="M225 185 Q240 180 245 190 Q240 200 225 195 Q220 190 225 185" fill="#228B22"/>
  <path d="M230 180 Q245 175 250 185 Q245 195 230 190 Q225 185 230 180" fill="#32CD32"/>
  
  <!-- Central crown leaves -->
  <circle cx="200" cy="130" r="15" fill="#228B22" opacity="0.8"/>
  <circle cx="195" cy="125" r="12" fill="#32CD32" opacity="0.8"/>
  <circle cx="205" cy="125" r="12" fill="#90EE90" opacity="0.8"/>
  <circle cx="200" cy="120" r="10" fill="#98FB98" opacity="0.8"/>
  
  <!-- Growth indicators -->
  <circle cx="185" cy="100" r="2" fill="#90EE90" opacity="0.6"/>
  <circle cx="215" cy="95" r="2" fill="#90EE90" opacity="0.6"/>
  <circle cx="200" cy="85" r="2" fill="#90EE90" opacity="0.6"/>
  
  <!-- Pot label -->
  <rect x="190" y="240" width="20" height="15" fill="#FFFFFF" stroke="#8B4513" stroke-width="1"/>
  <text x="200" y="250" text-anchor="middle" fill="#8B4513" font-family="Arial" font-size="8">OAK</text>
  
  <!-- Title -->
  <text x="200" y="20" text-anchor="middle" fill="#2d4a32" font-family="serif" font-size="18" font-weight="bold">English Oak Sapling</text>
  <text x="200" y="35" text-anchor="middle" fill="#6b8e23" font-family="Arial" font-size="12">2 Years Old • Ready for Planting</text>
</svg>
