<svg width="300" height="200" viewBox="0 0 300 200" fill="none" xmlns="http://www.w3.org/2000/svg">
  <!-- Background -->
  <rect width="300" height="200" fill="#f0f8f0"/>
  
  <!-- Ground -->
  <ellipse cx="150" cy="180" rx="120" ry="20" fill="#8FBC8F" opacity="0.3"/>
  
  <!-- Tree trunk -->
  <rect x="140" y="120" width="20" height="60" fill="#8B4513" rx="2"/>
  
  <!-- Tree foliage -->
  <circle cx="150" cy="110" r="25" fill="#228B22"/>
  <circle cx="135" cy="105" r="20" fill="#32CD32" opacity="0.8"/>
  <circle cx="165" cy="105" r="20" fill="#32CD32" opacity="0.8"/>
  <circle cx="150" cy="90" r="18" fill="#90EE90" opacity="0.7"/>
  
  <!-- Leaves floating -->
  <path d="M50 60 Q45 55 50 50 Q55 55 50 60" fill="#228B22" opacity="0.6"/>
  <path d="M250 80 Q245 75 250 70 Q255 75 250 80" fill="#32CD32" opacity="0.6"/>
  <path d="M80 40 Q75 35 80 30 Q85 35 80 40" fill="#90EE90" opacity="0.6"/>
  
  <!-- Small plants -->
  <path d="M30 160 Q25 150 30 140 Q35 150 30 160" fill="#228B22"/>
  <path d="M270 170 Q265 160 270 150 Q275 160 270 170" fill="#228B22"/>
  
  <!-- Title text -->
  <text x="150" y="25" text-anchor="middle" fill="#2d4a32" font-family="Arial, sans-serif" font-size="16" font-weight="bold">Nature Product</text>
  <text x="150" y="45" text-anchor="middle" fill="#6b8e23" font-family="Arial, sans-serif" font-size="12">Image Placeholder</text>
</svg>
